<?xml version="1.0" standalone="no"?><!DOCTYPE svg PUBLIC "-//W3C//DTD SVG 1.1//EN" "http://www.w3.org/Graphics/SVG/1.1/DTD/svg11.dtd"><svg t="1606984626645" class="icon" viewBox="0 0 1045 1024" version="1.1" xmlns="http://www.w3.org/2000/svg" p-id="4274" xmlns:xlink="http://www.w3.org/1999/xlink" width="130.625" height="128"><defs><style type="text/css"></style></defs><path d="M533.333333 106.666667c87.978667 0 161.130667 64.469333 176 149.376 58.218667 1.066667 106.453333 45.888 112.832 104.32l0.426667 4.906666 30.464 426.666667c4.394667 64.64-43.712 120.661333-107.456 125.12l-3.968 0.213333-3.989333 0.064H329.002667C265.130667 917.333333 213.333333 864.810667 213.333333 800l0.064-4.053333 0.213334-4.010667 30.464-426.666667c4.053333-59.904 51.968-106.752 110.613333-109.162666l2.624-0.064 1.045333-5.397334C375.317333 168.426667 447.210667 106.666667 533.333333 106.666667z m173.866667 213.333333h-347.733333c-26.474667 0-48.64 19.925333-52.096 46.208l-0.362667 3.456-30.549333 428.501333-0.021334 1.834667c0 28.266667 21.696 51.413333 49.109334 53.226667l3.456 0.106666h408.64l3.626666-0.128c27.818667-1.941333 49.066667-25.493333 48.96-53.376l-0.128-3.498666-30.464-426.666667C757.76 341.717333 734.826667 320 707.2 320zM458.666667 405.333333a32 32 0 1 1 0 64 32 32 0 0 1 0-64z m149.333333 0a32 32 0 1 1 0 64 32 32 0 0 1 0-64zM533.333333 170.666667c-52.949333 0-97.6 36.096-111.317333 85.333333h222.634667C630.933333 206.784 586.282667 170.666667 533.333333 170.666667z" fill="#A2A2A2" p-id="4275"></path></svg>