<?xml version="1.0" standalone="no"?><!DOCTYPE svg PUBLIC "-//W3C//DTD SVG 1.1//EN" "http://www.w3.org/Graphics/SVG/1.1/DTD/svg11.dtd"><svg t="1606984618622" class="icon" viewBox="0 0 1024 1024" version="1.1" xmlns="http://www.w3.org/2000/svg" p-id="4021" xmlns:xlink="http://www.w3.org/1999/xlink" width="128" height="128"><defs><style type="text/css"></style></defs><path d="M512 128c87.978667 0 161.130667 64.469333 176 149.376 58.218667 1.066667 106.453333 45.888 112.832 104.32l0.426667 4.906667 30.464 426.666666c4.394667 64.64-43.712 120.661333-107.456 125.12l-3.968 0.213334-3.989334 0.064H307.669333C243.797333 938.666667 192 886.144 192 821.333333l0.064-4.053333 0.213333-4.010667 30.464-426.666666c4.053333-59.904 51.968-106.752 110.613334-109.162667l2.624-0.064 1.045333-5.397333C353.984 189.76 425.877333 128 512 128z m-74.666667 298.666667a32 32 0 1 0 0 64 32 32 0 0 0 0-64z m149.333334 0a32 32 0 1 0 0 64 32 32 0 0 0 0-64zM512 192c-52.949333 0-97.6 36.096-111.317333 85.333333h222.634666c-13.717333-49.237333-58.368-85.333333-111.317333-85.333333z" fill="#FB7299" p-id="4022"></path></svg>