<?xml version="1.0" standalone="no"?><!DOCTYPE svg PUBLIC "-//W3C//DTD SVG 1.1//EN" "http://www.w3.org/Graphics/SVG/1.1/DTD/svg11.dtd"><svg t="1606298950989" class="icon" viewBox="0 0 1024 1024" version="1.1" xmlns="http://www.w3.org/2000/svg" p-id="6419" xmlns:xlink="http://www.w3.org/1999/xlink" width="200" height="200"><defs><style type="text/css"></style></defs><path d="M810.667 256a64 64 0 0 1 64 64v426.667a64 64 0 0 1-64 64H213.333a64 64 0 0 1-64-64V320a64 64 0 0 1 64-64h597.334z m0 64H213.333v426.667h597.334V320zM512 384a149.333 149.333 0 1 1 0 298.667A149.333 149.333 0 0 1 512 384z m0 64a85.333 85.333 0 1 0 0 170.667A85.333 85.333 0 0 0 512 448z m298.667-298.667v64H512v-64h298.667z" p-id="6420" fill="#FFFFFF"></path></svg>