<?xml version="1.0" standalone="no"?><!DOCTYPE svg PUBLIC "-//W3C//DTD SVG 1.1//EN" "http://www.w3.org/Graphics/SVG/1.1/DTD/svg11.dtd"><svg t="1606984416650" class="icon" viewBox="0 0 1024 1024" version="1.1" xmlns="http://www.w3.org/2000/svg" p-id="3304" xmlns:xlink="http://www.w3.org/1999/xlink" width="128" height="128"><defs><style type="text/css"></style></defs><path d="M628.714667 135.424a33.066667 33.066667 0 0 1 44.266666 49.045333L622.72 234.666667H757.333333a117.333333 117.333333 0 0 1 117.248 112.618666L874.666667 352v384a117.333333 117.333333 0 0 1-117.333334 117.333333h-533.333333A117.333333 117.333333 0 0 1 106.666667 736v-384a117.333333 117.333333 0 0 1 117.333333-117.333333h113.237333l-50.218666-50.197334a33.066667 33.066667 0 0 1 44.266666-49.066666l2.517334 2.282666L430.762667 234.666667h98.453333l96.981333-96.981334zM405.269333 437.376v213.248c0 26.026667 29.44 41.152 50.602667 26.026667l149.333333-106.624a31.978667 31.978667 0 0 0 0-52.053334l-149.333333-106.624c-21.184-15.125333-50.602667 0-50.602667 26.026667z" fill="#FB7299" p-id="3305"></path></svg>