<?xml version="1.0" standalone="no"?><!DOCTYPE svg PUBLIC "-//W3C//DTD SVG 1.1//EN" "http://www.w3.org/Graphics/SVG/1.1/DTD/svg11.dtd"><svg t="1606911937106" class="icon" viewBox="0 0 1024 1024" version="1.1" xmlns="http://www.w3.org/2000/svg" p-id="1837" xmlns:xlink="http://www.w3.org/1999/xlink" width="128" height="128"><defs><style type="text/css"></style></defs><path d="M856.816327 689.632653a31.346939 31.346939 0 0 1 31.200653 28.337633L888.163265 720.979592v20.897959a114.938776 114.938776 0 0 1-110.320326 114.855184L773.22449 856.816327h-522.44898a114.938776 114.938776 0 0 1-114.855183-110.320327L135.836735 741.877551v-20.897959a31.346939 31.346939 0 0 1 62.547592-3.009306L198.530612 720.979592v20.897959a52.244898 52.244898 0 0 0 48.817633 52.140408L250.77551 794.122449h522.44898a52.244898 52.244898 0 0 0 52.140408-48.817633L825.469388 741.877551v-20.897959a31.346939 31.346939 0 0 1 31.346939-31.346939zM512 146.285714a31.346939 31.346939 0 0 1 31.346939 31.346939v449.870367l186.576979-179.764244a32.182857 32.182857 0 0 1 44.512653 0c12.329796 11.911837 12.329796 31.221551 0 43.154285L534.277224 722.442449c-3.092898 2.96751-6.666449 5.22449-10.469877 6.708245a31.555918 31.555918 0 0 1-23.322123 0.083592l-0.313469-0.10449a31.472327 31.472327 0 0 1-10.407184-6.687347L249.521633 490.893061a29.863184 29.863184 0 0 1 0-43.154285 32.182857 32.182857 0 0 1 44.512653 0l186.597877 179.764244V177.632653A31.346939 31.346939 0 0 1 512 146.285714z" fill="#1296db" p-id="1838"></path></svg>