<?xml version="1.0" standalone="no"?><!DOCTYPE svg PUBLIC "-//W3C//DTD SVG 1.1//EN" "http://www.w3.org/Graphics/SVG/1.1/DTD/svg11.dtd"><svg t="1606984578195" class="icon" viewBox="0 0 1024 1024" version="1.1" xmlns="http://www.w3.org/2000/svg" p-id="3762" xmlns:xlink="http://www.w3.org/1999/xlink" width="128" height="128"><defs><style type="text/css"></style></defs><path d="M859.562667 180.8a73.216 73.216 0 0 1 28.245333 96.917333l-2.026667 3.648-323.562666 546.752a94.570667 94.570667 0 0 1-19.925334 23.701334 95.424 95.424 0 0 1-130.709333-6.4l-3.285333-3.605334-29.141334-33.664-38.314666 35.946667a74.112 74.112 0 0 1-46.016 19.882667l-4.693334 0.149333c-39.466667 0-71.68-30.72-73.813333-69.418667l-0.106667-4.032v-97.642666l312.746667-253.717334a10.666667 10.666667 0 0 0-11.562667-17.770666l-337.493333 172.416-31.936-35.904-0.064-0.213334-39.381333-45.226666a94.272 94.272 0 0 1-19.413334-35.52c-14.165333-48.64 12.757333-99.413333 60.416-115.626667l4.394667-1.365333 647.594667-186.538667c19.52-5.632 40.533333-2.986667 58.026666 7.253333z" fill="#FB7299" p-id="3763"></path></svg>