<?xml version="1.0" standalone="no"?><!DOCTYPE svg PUBLIC "-//W3C//DTD SVG 1.1//EN" "http://www.w3.org/Graphics/SVG/1.1/DTD/svg11.dtd"><svg t="1606984566729" class="icon" viewBox="0 0 1024 1024" version="1.1" xmlns="http://www.w3.org/2000/svg" p-id="3557" xmlns:xlink="http://www.w3.org/1999/xlink" width="128" height="128"><defs><style type="text/css"></style></defs><path d="M801.514667 152.234667c19.52-5.632 40.533333-2.986667 58.026666 7.253333a73.216 73.216 0 0 1 28.266667 96.896l-2.026667 3.648-323.562666 546.752a94.570667 94.570667 0 0 1-19.925334 23.701333 95.424 95.424 0 0 1-130.709333-6.4l-3.285333-3.605333-29.141334-33.664-38.314666 35.946667a74.112 74.112 0 0 1-46.016 19.882666l-4.693334 0.149334c-39.466667 0-71.68-30.72-73.813333-69.418667l-0.106667-4.032v-99.157333c0-34.773333 15.786667-67.626667 42.773334-89.472l4.352-3.370667L595.136 333.653333a31.786667 31.786667 0 0 1 44.288 6.613334 31.36 31.36 0 0 1-4.266667 42.090666l-2.389333 1.92-331.797333 243.712a52.394667 52.394667 0 0 0-21.269334 38.378667l-0.128 3.818667v99.157333a10.517333 10.517333 0 0 0 16.213334 8.853333l1.578666-1.216 62.442667-58.581333a31.808 31.808 0 0 1 43.584 0.106667l2.176 2.261333 50.773333 58.666667a31.786667 31.786667 0 0 0 49.365334-1.706667l1.92-2.88 323.562666-546.730667a10.453333 10.453333 0 0 0-10.346666-15.744l-1.706667 0.341334-647.573333 186.517333a31.445333 31.445333 0 0 0-17.237334 48.170667l2.090667 2.666666 44.266667 50.837334a31.36 31.36 0 0 1-3.221334 44.394666c-12.394667 10.666667-30.762667 10.069333-42.453333-0.853333l-2.218667-2.346667-44.266666-50.816a94.272 94.272 0 0 1-19.413334-35.52c-14.165333-48.64 12.757333-99.413333 60.416-115.626666l4.394667-1.365334 647.594667-186.538666z" fill="#A2A2A2" p-id="3558"></path></svg>